# xmcd
#
# Track frame offsets:
#	150
#	9943
#	24902
#	43886
#	60061
#	74432
#	94624
#	111287
#	130268
#	146838
#	151651
#	173028
#	193052
#	211148
#	234229
#	254323
#	274123
#
# Disc length: 3936 seconds
#
# Revision: 0
# Processed by: cddbd v1.5.2PL0 Copyright (c) Steve Scherf et al.
# Submitted via: EasyCDDAExtractor 11.0.2.1
#
DISCID=dd0f5e11
DTITLE=Marquise Porter - Lobster Tailz
DYEAR=2005
DGENRE=Rap
TTITLE0=Intro
TTITLE1=Say It
TTITLE2=313
TTITLE3=Lady'z Hand'z High
TTITLE4=Red Rum (Feat. Ill)
TTITLE5=Double The $
TTITLE6=Screamin'
TTITLE7=Working Man
TTITLE8=So Whut You Tellin' Me (Feat. Osceloa)
TTITLE9=Sex, Drugs, Hip Hop (Intro)
TTITLE10=Sex, Drugs, Hip Hop
TTITLE11=Damn It Feelz Good
TTITLE12=Down
TTITLE13=You Can Do Whut
TTITLE14=Do My Thang
TTITLE15=Good Die Young
TTITLE16=313 (Remix Feat. Paulie, Blade, Dirty Deacon and Eddie Cane)
EXTD=
EXTT0=
EXTT1=
EXTT2=
EXTT3=
EXTT4=
EXTT5=
EXTT6=
EXTT7=
EXTT8=
EXTT9=
EXTT10=
EXTT11=
EXTT12=
EXTT13=
EXTT14=
EXTT15=
EXTT16=
PLAYORDER=
